<svg xmlns="http://www.w3.org/2000/svg" viewBox="0 0 64 80" x="0px" y="0px"><title>book and literature</title><path d="M62,6.5H59v-3a2,2,0,0,0-2-2H35a2,2,0,0,0-1.11.34L32,3.1,30.11,1.84A2,2,0,0,0,29,1.5H7a2,2,0,0,0-2,2v3H2a2,2,0,0,0-2,2v43a2,2,0,0,0,2,2H28.39l2.5,1.66a2,2,0,0,0,2.22,0l2.5-1.66h.48A14.5,14.5,0,0,0,64,48V8.5A2,2,0,0,0,62,6.5ZM57.9,46a19.44,19.44,0,0,0-1.56-6,10.47,10.47,0,0,1,3.46,6ZM39.2,46a10.42,10.42,0,0,1,3.46-6,19.44,19.44,0,0,0-1.56,6Zm8.3-6.57V46H45.14A15.51,15.51,0,0,1,47.5,39.43ZM47.5,50v6.56A15.52,15.52,0,0,1,45.14,50Zm4,0h2.36a15.52,15.52,0,0,1-2.36,6.56Zm0-4V39.44A15.52,15.52,0,0,1,53.86,46ZM35.61,5.5H55V34.59A14.48,14.48,0,0,0,35.72,43.5H35a2.06,2.06,0,0,0-1,.28V6.57ZM9,5.5H28.39L30,6.57V43.78a2.06,2.06,0,0,0-1-.28H9Zm26,44a2,2,0,0,0-1.11.34L32,51.1l-1.89-1.26A2,2,0,0,0,29,49.5H4v-39H5v35a2,2,0,0,0,2,2H28.39l2.5,1.66a2,2,0,0,0,2.22,0L35,47.9a.34.34,0,0,0,0,.1,14.76,14.76,0,0,0,.08,1.5Zm4.2.5h1.9a19.72,19.72,0,0,0,1.56,6A10.47,10.47,0,0,1,39.2,50Zm17.14,6a19.44,19.44,0,0,0,1.56-6h1.9A10.42,10.42,0,0,1,56.34,56ZM59,37.07V10.5h1V38C59.68,37.69,59.35,37.38,59,37.07Z"/><text x="0" y="79" fill="#000000" font-size="5px" font-weight="bold" font-family="'Helvetica Neue', Helvetica, Arial-Unicode, Arial, Sans-serif">Created by Lagot Design</text><text x="0" y="84" fill="#000000" font-size="5px" font-weight="bold" font-family="'Helvetica Neue', Helvetica, Arial-Unicode, Arial, Sans-serif">from the Noun Project</text></svg>